<svg width="379" height="379" viewBox="0 0 379 379" fill="none" xmlns="http://www.w3.org/2000/svg">
<path d="M1 23.6061C1 11.1212 11.1212 1 23.6061 1H125.333C137.819 1 147.94 11.1212 147.94 23.6061V125.333C147.94 137.818 137.819 147.94 125.333 147.94H23.6061C11.1212 147.94 1 137.818 1 125.333V23.6061Z" fill="#00AB42" stroke="#00AB42" stroke-width="1.85263"/>
<path d="M1 249.666C1 237.181 11.1212 227.06 23.6061 227.06H125.333C137.819 227.06 147.94 237.181 147.94 249.666V351.394C147.94 363.879 137.819 374 125.333 374H23.6061C11.1212 374 1 363.879 1 351.394V249.666Z" fill="#00AB42" stroke="#00AB42" stroke-width="1.85263"/>
<path d="M227.058 23.6061C227.058 11.1212 237.178 1 249.664 1H351.391C363.876 1 373.997 11.1212 373.997 23.6061V125.333C373.997 137.818 363.876 147.94 351.391 147.94H249.664C237.178 147.94 227.058 137.818 227.058 125.333V23.6061Z" fill="#00AB42" stroke="#00AB42" stroke-width="1.85263"/>
<path d="M300.529 232.711V368.347" stroke="#00AB42" stroke-width="19.7614" stroke-miterlimit="10" stroke-linecap="round"/>
<path d="M368.34 300.53H232.704" stroke="#00AB42" stroke-width="19.7614" stroke-miterlimit="10" stroke-linecap="round"/>
</svg>
