<svg width="375" height="393" viewBox="0 0 375 393" fill="none" xmlns="http://www.w3.org/2000/svg">
<rect x="73" y="129" width="223" height="223" fill="white"/>
<path d="M327.451 90.569H31.6641L59.5761 342.195C62.7001 370.941 87.2801 392.604 116.442 392.604H258.502C287.664 392.604 312.244 370.941 315.368 342.195L343.28 90.569H327.451ZM208.303 184.304C208.303 172.847 217.677 163.474 229.133 163.474C240.59 163.474 249.963 172.847 249.963 184.304V309.284C249.963 320.74 240.59 330.114 229.133 330.114C217.677 330.114 208.303 320.74 208.303 309.284V184.304ZM124.983 184.304C124.983 172.847 134.357 163.474 145.813 163.474C157.27 163.474 166.643 172.847 166.643 184.304V309.284C166.643 320.74 157.27 330.114 145.813 330.114C134.357 330.114 124.983 320.74 124.983 309.284V184.304Z" fill="#CB0000"/>
<path d="M354.11 41.66H208.3V20.83C208.3 9.332 198.989 0 187.47 0C175.951 0 166.64 9.332 166.64 20.83V41.66H20.83C9.311 41.66 0 50.992 0 62.49C0 73.988 9.311 83.32 20.83 83.32H354.11C365.629 83.32 374.94 73.988 374.94 62.49C374.94 50.992 365.629 41.66 354.11 41.66Z" fill="#CB0000"/>
</svg>
