<svg width="478" height="399" viewBox="0 0 478 399" fill="none" xmlns="http://www.w3.org/2000/svg">
<mask id="mask0_141_2723" style="mask-type:alpha" maskUnits="userSpaceOnUse" x="0" y="0" width="412" height="399">
<path d="M360.909 15.0052L394.628 45.5242C394.934 45.8016 395.233 46.0861 395.524 46.3782C416.2 67.0549 416.2 100.743 395.524 121.42L395.25 121.69L349.678 165.876L241.69 58.0688L286.622 15.2621C307.149 -5.00136 340.275 -5.08701 360.909 15.0052Z" fill="#121331"/>
<path d="M205.628 92.4243L7.97343 280.725C3.04132 285.423 0.25 291.939 0.25 298.75V373.438C0.25 387.187 11.3964 398.333 25.1458 398.333H99.8333C106.303 398.333 112.519 395.814 117.163 391.31L313.925 200.538L205.628 92.4243Z" fill="#121331"/>
</mask>
<g mask="url(#mask0_141_2723)">
<path d="M25.1458 298.75V373.438H99.8333L377.92 103.816C388.874 92.8615 388.874 74.9365 377.92 63.9823L343.812 33.1115C332.858 22.1573 314.933 22.1573 303.979 33.1115L25.1458 298.75Z" fill="#267CB5" stroke="#267CB5" stroke-width="9.06208" stroke-linecap="round" stroke-linejoin="round"/>
</g>
<path d="M99.833 373.438H473.271" stroke="#267CB5" stroke-width="9.06208" stroke-linecap="round" stroke-linejoin="round"/>
</svg>
