<svg width="435" height="348" viewBox="0 0 435 348" fill="none" xmlns="http://www.w3.org/2000/svg">
<mask id="mask0_141_2724" style="mask-type:alpha" maskUnits="userSpaceOnUse" x="0" y="0" width="435" height="348">
<path d="M217.5 97.875C175.457 97.875 141.375 131.957 141.375 174C141.375 216.043 175.457 250.125 217.5 250.125C259.543 250.125 293.625 216.043 293.625 174C293.625 131.957 259.543 97.875 217.5 97.875Z" fill="#121331"/>
<path fill-rule="evenodd" clip-rule="evenodd" d="M0.775986 169.028C30.297 76.7753 112.81 0 217.5 0C322.189 0 404.702 76.7753 434.223 169.028C435.259 172.262 435.259 175.738 434.223 178.972C404.702 271.225 322.189 348 217.5 348C112.81 348 30.297 271.225 0.775986 178.972C-0.258662 175.738 -0.258662 172.262 0.775986 169.028ZM217.5 65.25C157.439 65.25 108.75 113.939 108.75 174C108.75 234.06 157.439 282.75 217.5 282.75C277.56 282.75 326.25 234.06 326.25 174C326.25 113.939 277.56 65.25 217.5 65.25Z" fill="#121331"/>
</mask>
<g mask="url(#mask0_141_2724)">
<path d="M418.688 174C390.847 261 313.635 331.688 217.5 331.688C121.365 331.688 44.1525 261 16.3125 174C44.1525 87 121.365 16.3125 217.5 16.3125C313.635 16.3125 390.847 87 418.688 174Z" fill="#848484" stroke="#848484" stroke-width="34.9359" stroke-linecap="round" stroke-linejoin="round"/>
</g>
</svg>
